G04 Layer_Color=8421504*
%FSLAX25Y25*%
%MOIN*%
G70*
G01*
G75*
%ADD10R,0.05512X0.05906*%
%ADD11R,0.05906X0.05512*%
G04:AMPARAMS|DCode=12|XSize=25.59mil|YSize=64.96mil|CornerRadius=1.92mil|HoleSize=0mil|Usage=FLASHONLY|Rotation=270.000|XOffset=0mil|YOffset=0mil|HoleType=Round|Shape=RoundedRectangle|*
%AMROUNDEDRECTD12*
21,1,0.02559,0.06112,0,0,270.0*
21,1,0.02175,0.06496,0,0,270.0*
1,1,0.00384,-0.03056,-0.01088*
1,1,0.00384,-0.03056,0.01088*
1,1,0.00384,0.03056,0.01088*
1,1,0.00384,0.03056,-0.01088*
%
%ADD12ROUNDEDRECTD12*%
%ADD13R,0.03543X0.03937*%
%ADD14O,0.02362X0.07677*%
%ADD15O,0.07677X0.02362*%
%ADD16R,0.03937X0.03543*%
D10*
X140984Y177717D02*
D03*
X133110D02*
D03*
X37110Y59716D02*
D03*
X44984D02*
D03*
X191984Y78716D02*
D03*
X184110D02*
D03*
X100110Y235717D02*
D03*
X107984D02*
D03*
D11*
X80047Y181653D02*
D03*
Y173779D02*
D03*
X22047Y131653D02*
D03*
Y123779D02*
D03*
X61047Y101779D02*
D03*
Y109653D02*
D03*
X161047Y183653D02*
D03*
Y175779D02*
D03*
Y226780D02*
D03*
Y234653D02*
D03*
D12*
X52669Y125216D02*
D03*
Y130217D02*
D03*
Y135216D02*
D03*
Y140217D02*
D03*
Y145217D02*
D03*
Y150216D02*
D03*
Y155217D02*
D03*
Y160216D02*
D03*
X30425Y125216D02*
D03*
Y130217D02*
D03*
Y135216D02*
D03*
Y140217D02*
D03*
Y145217D02*
D03*
Y150216D02*
D03*
Y155217D02*
D03*
Y160216D02*
D03*
X52669Y70217D02*
D03*
Y75217D02*
D03*
Y80216D02*
D03*
Y85216D02*
D03*
Y90216D02*
D03*
Y95217D02*
D03*
Y100216D02*
D03*
Y105217D02*
D03*
X30425Y70217D02*
D03*
Y75217D02*
D03*
Y80216D02*
D03*
Y85216D02*
D03*
Y90216D02*
D03*
Y95217D02*
D03*
Y100216D02*
D03*
Y105217D02*
D03*
X194169Y89217D02*
D03*
Y94217D02*
D03*
Y99217D02*
D03*
Y104217D02*
D03*
Y109216D02*
D03*
Y114216D02*
D03*
Y119217D02*
D03*
Y124216D02*
D03*
X171925Y89217D02*
D03*
Y94217D02*
D03*
Y99217D02*
D03*
Y104217D02*
D03*
Y109216D02*
D03*
Y114216D02*
D03*
Y119217D02*
D03*
Y124216D02*
D03*
X194169Y143217D02*
D03*
Y148216D02*
D03*
Y153217D02*
D03*
Y158217D02*
D03*
Y163216D02*
D03*
Y168217D02*
D03*
Y173216D02*
D03*
Y178217D02*
D03*
X171925Y143217D02*
D03*
Y148216D02*
D03*
Y153217D02*
D03*
Y158217D02*
D03*
Y163216D02*
D03*
Y168217D02*
D03*
Y173216D02*
D03*
Y178217D02*
D03*
X194169Y187216D02*
D03*
Y192217D02*
D03*
Y197216D02*
D03*
Y202217D02*
D03*
Y207217D02*
D03*
Y212216D02*
D03*
Y217216D02*
D03*
Y222217D02*
D03*
X171925Y187216D02*
D03*
Y192217D02*
D03*
Y197216D02*
D03*
Y202217D02*
D03*
Y207217D02*
D03*
Y212216D02*
D03*
Y217216D02*
D03*
Y222217D02*
D03*
X194169Y231217D02*
D03*
Y236216D02*
D03*
Y241216D02*
D03*
Y246217D02*
D03*
Y251217D02*
D03*
Y256217D02*
D03*
Y261216D02*
D03*
Y266216D02*
D03*
X171925Y231217D02*
D03*
Y236216D02*
D03*
Y241216D02*
D03*
Y246217D02*
D03*
Y251217D02*
D03*
Y256217D02*
D03*
Y261216D02*
D03*
Y266216D02*
D03*
D13*
X131898Y203716D02*
D03*
X138197D02*
D03*
X138197Y210717D02*
D03*
X131898D02*
D03*
D14*
X96024Y191984D02*
D03*
X99173D02*
D03*
X102323D02*
D03*
X105472D02*
D03*
X108622D02*
D03*
X111772D02*
D03*
X114921D02*
D03*
X118071D02*
D03*
Y225449D02*
D03*
X114921D02*
D03*
X111772D02*
D03*
X108622D02*
D03*
X105472D02*
D03*
X102323D02*
D03*
X99173D02*
D03*
X96024D02*
D03*
D15*
X123779Y197693D02*
D03*
Y200842D02*
D03*
Y203992D02*
D03*
Y207142D02*
D03*
Y210291D02*
D03*
Y213441D02*
D03*
Y216591D02*
D03*
Y219740D02*
D03*
X90315D02*
D03*
Y216591D02*
D03*
Y213441D02*
D03*
Y210291D02*
D03*
Y207142D02*
D03*
Y203992D02*
D03*
Y200842D02*
D03*
Y197693D02*
D03*
D16*
X124047Y309567D02*
D03*
Y315866D02*
D03*
M02*
