M48
;Layer_Color=9474304
;FILE_FORMAT=2:5
INCH,LZ
;TYPE=PLATED
T1F00S00C0.01400
T2F00S00C0.02362
T3F00S00C0.02800
T4F00S00C0.03150
T5F00S00C0.03543
T6F00S00C0.03937
T7F00S00C0.04000
T8F00S00C0.04528
T9F00S00C0.04724
T10F00S00C0.05906
;TYPE=NON_PLATED
T11F00S00C0.11811
%
T01
X0037047Y0130717
X0046047Y0123716
X0079047Y0118717
X0091047Y0190717
X0100047Y0199716
X0114047Y0202716
X0117047Y0213717
X0105047Y0215717
X0123047Y0193717
X0178047Y0103717
X0114047Y0236717
Y0240717
T02
X0036047Y0186716
Y0191717
Y0196716
X0097441Y0177717
X0116654
T03
X0181047Y0046716
X0188047
X0197047Y0041717
X0031047Y0059716
X0030047Y0112961
X0022047Y0139716
X0038047Y0144717
Y0165717
X0044047Y0159716
X0066047Y0161716
X0067047Y0107717
Y0101716
X0090047Y0171716
X0105047Y0173716
Y0183716
X0109047Y0200716
X0127047Y0190217
X0152047Y0197716
X0153047Y0206716
X0161047
X0144047
X0161047Y0189716
X0180047Y0193717
Y0172716
X0188047Y0176716
X0179047Y0159716
X0188047Y0123716
X0165047Y0117717
Y0107717
X0199047Y0078716
X0081047Y0196716
X0082047Y0205716
X0304547Y0170217
Y0110216
Y0217717
X0311047Y0292717
X0325047Y0297716
Y0287717
X0301047Y0308717
X0355047Y0255716
X0187047Y0265717
X0192047Y0300716
X0161047Y0250716
X0165047Y0245717
X0166984Y022678
X0150047Y0229716
X0137047Y0222716
X0121047Y0240717
X0108047Y0241717
X0101047Y0248716
X0142047Y0252716
X0187047Y0221716
X0072047Y0232716
X0130047Y0324716
X0019047Y0303716
X0014047Y0299716
X0024047Y0261717
T04
X0036047Y0211779
Y0219654
T05
X0076547Y0072716
X0086547
X0096547
X0106547
X0116547
X0126547
X0136547
X0146547
X0156547
Y0102717
X0146547
X0136547
X0126547
X0116547
X0106547
X0096547
X0086547
X0076547
Y0130217
X0086547
X0096547
X0106547
X0116547
X0126547
X0136547
X0146547
X0156547
Y0160216
X0146547
X0136547
X0126547
X0116547
X0106547
X0096547
X0086547
X0076547
X0212047
X0222047
Y0177717
X0212047
Y0207716
X0222047
Y0130217
X0212047
Y0102717
X0222047
Y0072716
X0212047
X0232047
X0242047
X0252047
X0262047
X0272047
X0282047
X0292047
Y0102717
X0282047
X0272047
X0262047
X0252047
X0242047
X0232047
Y0130217
X0242047
X0252047
X0262047
X0272047
X0282047
X0292047
Y0160216
X0282047
X0272047
X0262047
X0252047
X0242047
X0232047
Y0177717
X0242047
X0252047
X0262047
X0272047
X0282047
X0292047
Y0207716
X0282047
X0272047
X0262047
X0252047
X0242047
X0232047
Y0225716
X0242047
X0252047
X0262047
X0272047
X0282047
X0292047
Y0255716
X0282047
X0272047
X0262047
X0252047
X0242047
X0232047
X0222047
X0212047
Y0225716
X0222047
X0114047Y0286717
X0104047
X0094047
X0084047
X0074047
Y0316717
X0084047
X0094047
X0104047
X0114047
X0064047
X0054047
X0044047
X0034047
Y0286717
X0044047
X0054047
X0064047
T06
X0052157Y0182717
X0065937
X0077047Y0262717
X0087047
X0097047
X0107047
X0073047Y0339717
X0063047
X0053047
X0043047
X0033047
X0023047
X0037047Y0262717
X0047047
X0057047
X0067047
T07
X0227047Y0022716
Y0032717
X0237047
Y0022716
X0247047
Y0032717
X0257047
Y0022716
X0267047
Y0032717
X0277047
Y0022716
X0334547Y0027716
Y0037716
Y0047717
Y0057717
X0344547
Y0047717
Y0037716
Y0027716
X0217047Y0032717
X0207047
X0197047
X0187047
X0177047
X0167047
X0157047
Y0022716
X0167047
X0177047
X0187047
X0197047
X0207047
X0217047
X0334547Y0067716
Y0077716
Y0087717
Y0097716
Y0107717
Y0117717
Y0127717
Y0137716
Y0147716
Y0157717
Y0167717
Y0177717
Y0187716
Y0197716
Y0207716
X0344547
Y0197716
Y0187716
Y0177717
Y0167717
Y0157717
Y0147716
Y0137716
Y0127717
Y0117717
Y0107717
Y0097716
Y0087717
Y0077716
Y0067716
Y0217717
Y0227716
Y0237717
Y0247716
Y0257716
Y0267717
Y0277716
Y0287717
Y0297716
Y0307716
Y0317717
X0334547
Y0307716
Y0297716
Y0287717
Y0277716
Y0267717
Y0257716
Y0247716
Y0237717
Y0227716
Y0217717
X0277047Y0312717
X0267047
X0257047
X0247047
X0237047
X0227047
Y0322716
X0237047
X0247047
X0257047
X0267047
X0277047
X0217047
X0207047
X0197047
X0187047
X0177047
X0167047
X0157047
Y0312717
X0167047
X0177047
X0187047
X0197047
X0207047
X0217047
T08
X0077764Y0248716
X0088331
X0094331Y0275716
X0129764
X0123764Y0248716
X0122764Y0339717
X0087331
X0086764Y0326716
X0051331
X0019047Y0318433
Y0283
X0031331Y0275716
X0066764
X0042331Y0248716
T09
X0120047Y0015953
Y004548
T10
X0097047Y0021716
Y0041717
T11
X0377953Y0023622
Y0177165
Y0330709
M30
