G04 Layer_Color=16711935*
%FSLAX25Y25*%
%MOIN*%
G70*
G01*
G75*
%ADD60O,0.12047X0.09685*%
%ADD61O,0.04961X0.06142*%
%ADD62O,0.07887X0.08674*%
%ADD63O,0.08110X0.08898*%
%ADD64C,0.09024*%
%ADD65O,0.07323X0.08898*%
%ADD66C,0.07520*%
%ADD67O,0.07887X0.06706*%
%ADD68O,0.08110X0.06929*%
%ADD69R,0.06929X0.06929*%
%ADD70C,0.06929*%
%ADD71O,0.07024X0.09024*%
%ADD72R,0.07024X0.09024*%
%ADD73O,0.09024X0.07024*%
%ADD74R,0.09024X0.07024*%
%ADD75O,0.05748X0.04961*%
%ADD76O,0.12835X0.09685*%
%ADD77C,0.06024*%
%ADD78C,0.03824*%
%ADD79C,0.04224*%
D60*
X120047Y15953D02*
D03*
Y45480D02*
D03*
D61*
X97441Y177717D02*
D03*
X116654D02*
D03*
D62*
X65937Y182717D02*
D03*
D63*
X52157D02*
D03*
D64*
X377953Y330709D02*
D03*
Y23622D02*
D03*
Y177165D02*
D03*
D65*
X107047Y262717D02*
D03*
X97047D02*
D03*
X87047D02*
D03*
X77047D02*
D03*
X67047D02*
D03*
X57047D02*
D03*
X47047D02*
D03*
X37047D02*
D03*
X23047Y339717D02*
D03*
X33047D02*
D03*
X43047D02*
D03*
X53047D02*
D03*
X63047D02*
D03*
X73047D02*
D03*
D66*
X66764Y275716D02*
D03*
X31331D02*
D03*
X42331Y248716D02*
D03*
X77764D02*
D03*
X88331D02*
D03*
X123764D02*
D03*
X94331Y275716D02*
D03*
X129764D02*
D03*
X51331Y326716D02*
D03*
X86764D02*
D03*
X87331Y339717D02*
D03*
X122764D02*
D03*
X19047Y318433D02*
D03*
Y283000D02*
D03*
D67*
X36047Y219654D02*
D03*
D68*
Y211779D02*
D03*
D69*
X34047Y286717D02*
D03*
X156547Y102717D02*
D03*
Y160216D02*
D03*
X292047Y102717D02*
D03*
Y160216D02*
D03*
Y207716D02*
D03*
Y255716D02*
D03*
D70*
X44047Y286717D02*
D03*
X54047D02*
D03*
X64047D02*
D03*
X74047D02*
D03*
X84047D02*
D03*
X94047D02*
D03*
X104047D02*
D03*
X114047D02*
D03*
X34047Y316717D02*
D03*
X44047D02*
D03*
X54047D02*
D03*
X64047D02*
D03*
X74047D02*
D03*
X84047D02*
D03*
X94047D02*
D03*
X104047D02*
D03*
X114047D02*
D03*
X146547Y102717D02*
D03*
X136547D02*
D03*
X126547D02*
D03*
X116547D02*
D03*
X106547D02*
D03*
X96547D02*
D03*
X86547D02*
D03*
X76547D02*
D03*
X156547Y72716D02*
D03*
X146547D02*
D03*
X136547D02*
D03*
X126547D02*
D03*
X116547D02*
D03*
X106547D02*
D03*
X96547D02*
D03*
X86547D02*
D03*
X76547D02*
D03*
X146547Y160216D02*
D03*
X136547D02*
D03*
X126547D02*
D03*
X116547D02*
D03*
X106547D02*
D03*
X96547D02*
D03*
X86547D02*
D03*
X76547D02*
D03*
X156547Y130217D02*
D03*
X146547D02*
D03*
X136547D02*
D03*
X126547D02*
D03*
X116547D02*
D03*
X106547D02*
D03*
X96547D02*
D03*
X86547D02*
D03*
X76547D02*
D03*
X282047Y102717D02*
D03*
X272047D02*
D03*
X262047D02*
D03*
X252047D02*
D03*
X242047D02*
D03*
X232047D02*
D03*
X222047D02*
D03*
X212047D02*
D03*
X292047Y72716D02*
D03*
X282047D02*
D03*
X272047D02*
D03*
X262047D02*
D03*
X252047D02*
D03*
X242047D02*
D03*
X232047D02*
D03*
X222047D02*
D03*
X212047D02*
D03*
X282047Y160216D02*
D03*
X272047D02*
D03*
X262047D02*
D03*
X252047D02*
D03*
X242047D02*
D03*
X232047D02*
D03*
X222047D02*
D03*
X212047D02*
D03*
X292047Y130217D02*
D03*
X282047D02*
D03*
X272047D02*
D03*
X262047D02*
D03*
X252047D02*
D03*
X242047D02*
D03*
X232047D02*
D03*
X222047D02*
D03*
X212047D02*
D03*
X282047Y207716D02*
D03*
X272047D02*
D03*
X262047D02*
D03*
X252047D02*
D03*
X242047D02*
D03*
X232047D02*
D03*
X222047D02*
D03*
X212047D02*
D03*
X292047Y177717D02*
D03*
X282047D02*
D03*
X272047D02*
D03*
X262047D02*
D03*
X252047D02*
D03*
X242047D02*
D03*
X232047D02*
D03*
X222047D02*
D03*
X212047D02*
D03*
X282047Y255716D02*
D03*
X272047D02*
D03*
X262047D02*
D03*
X252047D02*
D03*
X242047D02*
D03*
X232047D02*
D03*
X222047D02*
D03*
X212047D02*
D03*
X292047Y225716D02*
D03*
X282047D02*
D03*
X272047D02*
D03*
X262047D02*
D03*
X252047D02*
D03*
X242047D02*
D03*
X232047D02*
D03*
X222047D02*
D03*
X212047D02*
D03*
D71*
X157047Y322716D02*
D03*
Y312717D02*
D03*
X167047Y322716D02*
D03*
Y312717D02*
D03*
X177047Y322716D02*
D03*
Y312717D02*
D03*
X187047Y322716D02*
D03*
Y312717D02*
D03*
X197047Y322716D02*
D03*
Y312717D02*
D03*
X207047Y322716D02*
D03*
Y312717D02*
D03*
X217047Y322716D02*
D03*
Y312717D02*
D03*
X227047Y322716D02*
D03*
Y312717D02*
D03*
X237047Y322716D02*
D03*
Y312717D02*
D03*
X247047Y322716D02*
D03*
Y312717D02*
D03*
X257047Y322716D02*
D03*
Y312717D02*
D03*
X267047Y322716D02*
D03*
Y312717D02*
D03*
X277047Y322716D02*
D03*
X157047Y32717D02*
D03*
Y22716D02*
D03*
X167047Y32717D02*
D03*
Y22716D02*
D03*
X177047Y32717D02*
D03*
Y22716D02*
D03*
X187047Y32717D02*
D03*
Y22716D02*
D03*
X197047Y32717D02*
D03*
Y22716D02*
D03*
X207047Y32717D02*
D03*
Y22716D02*
D03*
X217047Y32717D02*
D03*
Y22716D02*
D03*
X227047Y32717D02*
D03*
Y22716D02*
D03*
X237047Y32717D02*
D03*
Y22716D02*
D03*
X247047Y32717D02*
D03*
Y22716D02*
D03*
X257047Y32717D02*
D03*
Y22716D02*
D03*
X267047Y32717D02*
D03*
Y22716D02*
D03*
X277047Y32717D02*
D03*
D72*
Y312717D02*
D03*
Y22716D02*
D03*
D73*
X334547Y317717D02*
D03*
X344547D02*
D03*
X334547Y307716D02*
D03*
X344547D02*
D03*
X334547Y297716D02*
D03*
X344547D02*
D03*
X334547Y287717D02*
D03*
X344547D02*
D03*
X334547Y277716D02*
D03*
X344547D02*
D03*
X334547Y267717D02*
D03*
X344547D02*
D03*
X334547Y257716D02*
D03*
X344547D02*
D03*
X334547Y247716D02*
D03*
X344547D02*
D03*
X334547Y237717D02*
D03*
X344547D02*
D03*
X334547Y227716D02*
D03*
X344547D02*
D03*
X334547Y217717D02*
D03*
X344547D02*
D03*
X334547Y207716D02*
D03*
X344547D02*
D03*
X334547Y197716D02*
D03*
X344547D02*
D03*
X334547Y187716D02*
D03*
X344547D02*
D03*
X334547Y177717D02*
D03*
X344547D02*
D03*
X334547Y167717D02*
D03*
X344547D02*
D03*
X334547Y157717D02*
D03*
X344547D02*
D03*
X334547Y147716D02*
D03*
X344547D02*
D03*
X334547Y137716D02*
D03*
X344547D02*
D03*
X334547Y127717D02*
D03*
X344547D02*
D03*
X334547Y117717D02*
D03*
X344547D02*
D03*
X334547Y107717D02*
D03*
X344547D02*
D03*
X334547Y97716D02*
D03*
X344547D02*
D03*
X334547Y87717D02*
D03*
X344547D02*
D03*
X334547Y77716D02*
D03*
X344547D02*
D03*
X334547Y67716D02*
D03*
X344547D02*
D03*
X334547Y57717D02*
D03*
X344547D02*
D03*
X334547Y47717D02*
D03*
X344547D02*
D03*
X334547Y37716D02*
D03*
X344547D02*
D03*
X334547Y27716D02*
D03*
D74*
X344547D02*
D03*
D75*
X36047Y196716D02*
D03*
Y191717D02*
D03*
Y186716D02*
D03*
D76*
X97047Y21716D02*
D03*
Y41717D02*
D03*
D77*
X130047Y324716D02*
D03*
X137047Y222716D02*
D03*
X142047Y252716D02*
D03*
X72047Y232716D02*
D03*
X101047Y248716D02*
D03*
X144047Y206716D02*
D03*
X181047Y46716D02*
D03*
X188047D02*
D03*
X105047Y183716D02*
D03*
X197047Y41717D02*
D03*
X90047Y171716D02*
D03*
X304547Y110216D02*
D03*
Y170217D02*
D03*
X127047Y190217D02*
D03*
X152047Y197716D02*
D03*
X19047Y303716D02*
D03*
X14047Y299716D02*
D03*
X24047Y261717D02*
D03*
X180047Y172716D02*
D03*
X187047Y265717D02*
D03*
X188047Y123716D02*
D03*
Y176716D02*
D03*
X187047Y221716D02*
D03*
X180047Y193717D02*
D03*
X355047Y255716D02*
D03*
X325047Y297716D02*
D03*
X311047Y292717D02*
D03*
X325047Y287717D02*
D03*
X301047Y308717D02*
D03*
X38047Y144717D02*
D03*
X153047Y206716D02*
D03*
X166984Y226780D02*
D03*
X161047Y189716D02*
D03*
X199047Y78716D02*
D03*
X31047Y59716D02*
D03*
X22047Y139716D02*
D03*
X30047Y112961D02*
D03*
X192047Y300716D02*
D03*
X161047Y206716D02*
D03*
Y250716D02*
D03*
X150047Y229716D02*
D03*
X165047Y117717D02*
D03*
X109047Y200716D02*
D03*
X38047Y165717D02*
D03*
X66047Y161716D02*
D03*
X44047Y159716D02*
D03*
X108047Y241717D02*
D03*
X67047Y101716D02*
D03*
Y107717D02*
D03*
X179047Y159716D02*
D03*
X105047Y173716D02*
D03*
X121047Y240717D02*
D03*
X82047Y205716D02*
D03*
X81047Y196716D02*
D03*
X304547Y217717D02*
D03*
X165047Y107717D02*
D03*
Y245717D02*
D03*
D78*
X105047Y215717D02*
D03*
X117047Y213717D02*
D03*
X79047Y118717D02*
D03*
X114047Y240717D02*
D03*
Y236717D02*
D03*
X91047Y190717D02*
D03*
X100047Y199716D02*
D03*
X123047Y193717D02*
D03*
X114047Y202716D02*
D03*
X178047Y103717D02*
D03*
D79*
X37047Y130717D02*
D03*
X46047Y123716D02*
D03*
M02*
